<svg width="49" height="49" viewBox="0 0 49 49" fill="none" xmlns="http://www.w3.org/2000/svg">
<path opacity="0.4" d="M44.5 32.668V16.332C44.5 9.254 39.948 4.5 33.17 4.5H15.83C9.052 4.5 4.5 9.254 4.5 16.332V32.668C4.5 39.744 9.054 44.5 15.832 44.5H33.17C39.948 44.5 44.5 39.744 44.5 32.668Z" fill="#FF3B30"/>
<path d="M33.0589 22.7892L25.5629 15.2592C24.9989 14.6932 24.0009 14.6932 23.4349 15.2592L15.9389 22.7892C15.3549 23.3772 15.3569 24.3272 15.9449 24.9112C16.5329 25.4952 17.4809 25.4952 18.0669 24.9072L23.0009 19.9532V32.6632C23.0009 33.4932 23.6729 34.1632 24.5009 34.1632C25.3289 34.1632 26.0009 33.4932 26.0009 32.6632V19.9532L30.9329 24.9072C31.2269 25.2012 31.6109 25.3472 31.9969 25.3472C32.3789 25.3472 32.7629 25.2012 33.0549 24.9112C33.6409 24.3272 33.6429 23.3772 33.0589 22.7892Z" fill="#FF3B30"/>
</svg>
