<svg width="49" height="48" viewBox="0 0 49 48" fill="none" xmlns="http://www.w3.org/2000/svg">
<path d="M24.3981 29.0792C31.2604 29.0792 37.1199 30.1672 37.1199 34.5207C37.1199 38.8724 31.298 40 24.3981 40C17.5357 40 11.6762 38.9121 11.6762 34.5603C11.6762 30.2068 17.4981 29.0792 24.3981 29.0792ZM35.3701 26.4578C37.9937 26.4091 40.8142 26.7694 41.8564 27.0251C44.0645 27.4592 45.5168 28.3454 46.1186 29.6333C46.6271 30.6906 46.6271 31.9172 46.1186 32.9727C45.1981 34.9703 42.2307 35.6115 41.0774 35.7772C40.8393 35.8133 40.6476 35.6061 40.6727 35.3666C41.2619 29.8314 36.5754 27.2071 35.363 26.6037C35.311 26.5766 35.3003 26.5352 35.3057 26.51C35.3093 26.492 35.3307 26.4632 35.3701 26.4578ZM13.6312 26.4585C13.6706 26.4639 13.6903 26.4927 13.6939 26.5089C13.6992 26.5359 13.6885 26.5756 13.6384 26.6044C12.4242 27.2078 7.73766 29.8321 8.32683 35.3655C8.3519 35.6068 8.16208 35.8122 7.9239 35.778C6.77062 35.6122 3.80326 34.971 2.88278 32.9735C2.37241 31.9162 2.37241 30.6913 2.88278 29.634C3.4845 28.3461 4.93505 27.46 7.14311 27.0241C8.18715 26.7701 11.0059 26.4098 13.6312 26.4585ZM24.3981 8C29.0703 8 32.8166 11.7645 32.8166 16.4657C32.8166 21.1651 29.0703 24.9332 24.3981 24.9332C19.7258 24.9332 15.9795 21.1651 15.9795 16.4657C15.9795 11.7645 19.7258 8 24.3981 8ZM35.8268 9.41179C40.3396 9.41179 43.8836 13.6825 42.6766 18.4395C41.8618 21.642 38.9124 23.7693 35.6262 23.6828C35.2967 23.6738 34.9726 23.6432 34.6592 23.5891C34.4318 23.5495 34.3172 23.2919 34.4461 23.101C35.6997 21.2458 36.4142 19.0141 36.4142 16.6184C36.4142 14.1184 35.6334 11.7876 34.2778 9.8765C34.2348 9.81706 34.2025 9.7252 34.2455 9.65676C34.2813 9.60092 34.3476 9.5721 34.4103 9.55769C34.8669 9.46403 35.3361 9.41179 35.8268 9.41179ZM13.1719 9.41161C13.6625 9.41161 14.1317 9.46385 14.5902 9.55751C14.6511 9.57192 14.7191 9.60254 14.7549 9.65658C14.7961 9.72502 14.7657 9.81688 14.7227 9.87632C13.3671 11.7874 12.5863 14.1182 12.5863 16.6183C12.5863 19.0139 13.3008 21.2456 14.5544 23.1008C14.6833 23.2918 14.5687 23.5493 14.3413 23.589C14.0261 23.6448 13.7037 23.6736 13.3742 23.6826C10.0881 23.7691 7.13863 21.6419 6.32382 18.4393C5.11502 13.6823 8.65903 9.41161 13.1719 9.41161Z" fill="#2A3785"/>
</svg>
