<svg width="49" height="49" viewBox="0 0 49 49" fill="none" xmlns="http://www.w3.org/2000/svg">
<path opacity="0.4" d="M4.5 16.332V32.668C4.5 39.746 9.052 44.5 15.83 44.5H33.17C39.948 44.5 44.5 39.746 44.5 32.668V16.332C44.5 9.256 39.946 4.5 33.168 4.5H15.83C9.052 4.5 4.5 9.256 4.5 16.332Z" fill="#16FF3B"/>
<path d="M15.9411 26.2108L23.4371 33.7408C24.0011 34.3068 24.9991 34.3068 25.5651 33.7408L33.0611 26.2108C33.6451 25.6228 33.6431 24.6728 33.0551 24.0888C32.4671 23.5048 31.5191 23.5048 30.9331 24.0928L25.9991 29.0468V16.3368C25.9991 15.5068 25.3271 14.8368 24.4991 14.8368C23.6711 14.8368 22.9991 15.5068 22.9991 16.3368V29.0468L18.0671 24.0928C17.7731 23.7988 17.3891 23.6528 17.0031 23.6528C16.6211 23.6528 16.2371 23.7988 15.9451 24.0888C15.3591 24.6728 15.3571 25.6228 15.9411 26.2108Z" fill="#16FF3B"/>
</svg>
