<svg width="48" height="48" viewBox="0 0 48 48" fill="none" xmlns="http://www.w3.org/2000/svg">
<path d="M33.32 4C40.12 4 44 7.84 44 14.66V33.34C44 40.12 40.14 44 33.34 44H14.66C7.84 44 4 40.12 4 33.34V14.66C4 7.84 7.84 4 14.66 4H33.32ZM23.98 15.02C23.06 15.02 22.32 15.76 22.32 16.68V22.32H16.66C16.22 22.32 15.8 22.5 15.48 22.8C15.18 23.12 15 23.538 15 23.98C15 24.9 15.74 25.64 16.66 25.66H22.32V31.32C22.32 32.24 23.06 32.98 23.98 32.98C24.9 32.98 25.64 32.24 25.64 31.32V25.66H31.32C32.24 25.64 32.98 24.9 32.98 23.98C32.98 23.06 32.24 22.32 31.32 22.32H25.64V16.68C25.64 15.76 24.9 15.02 23.98 15.02Z" fill="#2A3785"/>
</svg>
